<svg width="494.496" height="494.496" xmlns="http://www.w3.org/2000/svg">

 <g>
  <title>background</title>
  <rect fill="none" id="canvas_background" height="402" width="582" y="-1" x="-1"/>
 </g>
 <g>
  <title>Layer 1</title>
  <g transform="rotate(180 116.13999938964844,247.2480010986328) " id="svg_1">
   <g id="svg_2">
    <path id="svg_3" fill="#FFFFFF" d="m214.7,217.51l-169.532,-116.876c-7.2,-4.98 -14.672,-7.6 -21.172,-7.6c-14.312,0 -23.996,12.296 -23.996,31.34l0,245.744c0,19.036 9.684,31.344 23.996,31.344c6.5,0 13.96,-2.632 21.172,-7.608l169.612,-116.876c11.296,-7.812 17.5,-18.372 17.5,-29.74c0,-11.348 -6.284,-21.912 -17.58,-29.728z"/>
   </g>
  </g>
  <g transform="rotate(180 378.35198974609375,247.2480010986328) " id="svg_4">
   <g id="svg_5">
    <path id="svg_6" fill="#FFFFFF" d="m476.928,217.51l-169.536,-116.876c-7.204,-4.98 -14.68,-7.6 -21.18,-7.6c-14.304,0 -24.004,12.296 -24.004,31.34l0,245.744c0,19.036 9.7,31.344 24.004,31.344c6.5,0 13.968,-2.632 21.184,-7.604l169.596,-116.88c11.312,-7.812 17.504,-18.372 17.504,-29.74c0,-11.348 -6.28,-21.912 -17.568,-29.728z"/>
   </g>
  </g>
  <g id="svg_7"/>
  <g id="svg_8"/>
  <g id="svg_9"/>
  <g id="svg_10"/>
  <g id="svg_11"/>
  <g id="svg_12"/>
  <g id="svg_13"/>
  <g id="svg_14"/>
  <g id="svg_15"/>
  <g id="svg_16"/>
  <g id="svg_17"/>
  <g id="svg_18"/>
  <g id="svg_19"/>
  <g id="svg_20"/>
  <g id="svg_21"/>
 </g>
</svg>