<svg width="535.578" height="535.578" xmlns="http://www.w3.org/2000/svg">

 <g>
  <title>background</title>
  <rect fill="none" id="canvas_background" height="402" width="582" y="-1" x="-1"/>
 </g>
 <g>
  <title>Layer 1</title>
  <g id="svg_1">
   <g id="svg_2">
    <g id="svg_3">
     <path stroke="#ffffff" fill="#fff" id="svg_4" d="m231.6,516.278c0,10.658 -8.641,19.3 -19.3,19.3l-106.15,0c-10.659,0 -19.3,-8.641 -19.3,-19.3l0,-496.978c0,-10.659 8.641,-19.3 19.3,-19.3l106.15,0c10.659,0 19.3,8.641 19.3,19.3l0,496.978z"/>
     <path stroke="#ffffff" fill="#fff" id="svg_5" d="m448.728,516.278c0,10.658 -8.641,19.3 -19.3,19.3l-106.15,0c-10.659,0 -19.3,-8.641 -19.3,-19.3l0,-496.978c0,-10.659 8.641,-19.3 19.3,-19.3l106.15,0c10.659,0 19.3,8.641 19.3,19.3l0,496.978z"/>
    </g>
   </g>
   <g id="svg_6"/>
   <g id="svg_7"/>
   <g id="svg_8"/>
   <g id="svg_9"/>
   <g id="svg_10"/>
   <g id="svg_11"/>
   <g id="svg_12"/>
   <g id="svg_13"/>
   <g id="svg_14"/>
   <g id="svg_15"/>
   <g id="svg_16"/>
   <g id="svg_17"/>
   <g id="svg_18"/>
   <g id="svg_19"/>
   <g id="svg_20"/>
  </g>
  <g id="svg_21"/>
  <g id="svg_22"/>
  <g id="svg_23"/>
  <g id="svg_24"/>
  <g id="svg_25"/>
  <g id="svg_26"/>
  <g id="svg_27"/>
  <g id="svg_28"/>
  <g id="svg_29"/>
  <g id="svg_30"/>
  <g id="svg_31"/>
  <g id="svg_32"/>
  <g id="svg_33"/>
  <g id="svg_34"/>
  <g id="svg_35"/>
 </g>
</svg>